<svg xmlns="http://www.w3.org/2000/svg" viewBox="0 0 64 64">
  <path fill="#14606b" fill-rule="evenodd" d="M 7.57 39.55 Q 4.72 30.08 8.25 20.83 Q 13.04 12.12 22.26 7.82 Q 32 4.75 41.74 7.82 Q 50.96 12.12 55.75 20.83 Q 59.28 30.08 56.43 39.55 C 55 45 41.5 49 40.5 51.4 A 1.6 1.6 0 0 1 38.9 53 L 25.1 53 A 1.6 1.6 0 0 1 23.5 51.4 C 22.5 49 9 45 7.57 39.55 Z M 28.35 48.81 L 12.77 21.64 A 3.3 3.3 0 0 0 7.3 25.33 L 26.69 49.93 A 1 1 0 0 0 28.35 48.81 Z M 31.39 47.96 L 26.13 10.3 A 3.3 3.3 0 0 0 19.66 11.61 L 29.43 48.36 A 1 1 0 0 0 31.39 47.96 Z M 34.57 48.36 L 44.34 11.61 A 3.3 3.3 0 0 0 37.87 10.3 L 32.61 47.96 A 1 1 0 0 0 34.57 48.36 Z M 37.31 49.93 L 56.7 25.33 A 3.3 3.3 0 0 0 51.23 21.64 L 35.65 48.81 A 1 1 0 0 0 37.31 49.93 Z"/>
</svg>
